<svg width="1280" height="520" viewBox="0 0 1280 520" fill="none" xmlns="http://www.w3.org/2000/svg">
  <defs>
    <linearGradient id="bg" x1="0" y1="0" x2="1280" y2="520" gradientUnits="userSpaceOnUse">
      <stop offset="0" stop-color="#05070F"/>
      <stop offset="0.48" stop-color="#08111F"/>
      <stop offset="1" stop-color="#101322"/>
    </linearGradient>
    <linearGradient id="line" x1="96" y1="260" x2="1184" y2="260" gradientUnits="userSpaceOnUse">
      <stop offset="0" stop-color="#FFB56B"/>
      <stop offset="0.5" stop-color="#67E8F9"/>
      <stop offset="1" stop-color="#8B7CFF"/>
    </linearGradient>
    <linearGradient id="card" x1="0" y1="0" x2="1" y2="1">
      <stop offset="0" stop-color="#172033"/>
      <stop offset="1" stop-color="#0B1020"/>
    </linearGradient>
    <filter id="glow" x="-40%" y="-40%" width="180%" height="180%" color-interpolation-filters="sRGB">
      <feGaussianBlur stdDeviation="18" result="blur"/>
      <feColorMatrix in="blur" type="matrix" values="0 0 0 0 0.25 0 0 0 0 0.92 0 0 0 0 1 0 0 0 0.42 0"/>
      <feBlend in="SourceGraphic" mode="screen"/>
    </filter>
  </defs>

  <rect width="1280" height="520" rx="34" fill="url(#bg)"/>

  <g opacity="0.42">
    <path d="M0 91H1280" stroke="#1E2A44"/>
    <path d="M0 181H1280" stroke="#1E2A44"/>
    <path d="M0 271H1280" stroke="#1E2A44"/>
    <path d="M0 361H1280" stroke="#1E2A44"/>
    <path d="M0 451H1280" stroke="#1E2A44"/>
    <path d="M126 0V520" stroke="#1E2A44"/>
    <path d="M306 0V520" stroke="#1E2A44"/>
    <path d="M486 0V520" stroke="#1E2A44"/>
    <path d="M666 0V520" stroke="#1E2A44"/>
    <path d="M846 0V520" stroke="#1E2A44"/>
    <path d="M1026 0V520" stroke="#1E2A44"/>
  </g>

  <circle cx="1004" cy="112" r="132" fill="#6D5CFF" opacity="0.13" filter="url(#glow)"/>
  <circle cx="270" cy="406" r="156" fill="#FFB56B" opacity="0.10" filter="url(#glow)"/>

  <text x="80" y="88" fill="#F8FAFC" font-family="Inter, ui-sans-serif, system-ui, -apple-system, BlinkMacSystemFont, Segoe UI, sans-serif" font-size="54" font-weight="760">AI2Human Network</text>
  <text x="82" y="128" fill="#A8B3C7" font-family="Inter, ui-sans-serif, system-ui, -apple-system, BlinkMacSystemFont, Segoe UI, sans-serif" font-size="20" font-weight="460">The execution and verification layer for the agent economy</text>

  <path d="M112 270H1168" stroke="url(#line)" stroke-width="4" stroke-linecap="round"/>

  <g font-family="Inter, ui-sans-serif, system-ui, -apple-system, BlinkMacSystemFont, Segoe UI, sans-serif">
    <g transform="translate(72 198)">
      <rect width="184" height="132" rx="22" fill="url(#card)" stroke="#2D3B56"/>
      <circle cx="38" cy="42" r="13" fill="#FFB56B"/>
      <text x="28" y="78" fill="#F8FAFC" font-size="18" font-weight="700">Agent</text>
      <text x="28" y="104" fill="#93A4BC" font-size="13">request</text>
    </g>
    <g transform="translate(286 198)">
      <rect width="184" height="132" rx="22" fill="url(#card)" stroke="#2D3B56"/>
      <circle cx="38" cy="42" r="13" fill="#67E8F9"/>
      <text x="28" y="78" fill="#F8FAFC" font-size="18" font-weight="700">Human</text>
      <text x="28" y="104" fill="#93A4BC" font-size="13">execute / verify</text>
    </g>
    <g transform="translate(500 198)">
      <rect width="184" height="132" rx="22" fill="url(#card)" stroke="#2D3B56"/>
      <circle cx="38" cy="42" r="13" fill="#8B7CFF"/>
      <text x="28" y="78" fill="#F8FAFC" font-size="18" font-weight="700">Proof</text>
      <text x="28" y="104" fill="#93A4BC" font-size="13">structured bundle</text>
    </g>
    <g transform="translate(714 198)">
      <rect width="184" height="132" rx="22" fill="url(#card)" stroke="#2D3B56"/>
      <circle cx="38" cy="42" r="13" fill="#22C55E"/>
      <text x="28" y="78" fill="#F8FAFC" font-size="18" font-weight="700">Verify</text>
      <text x="28" y="104" fill="#93A4BC" font-size="13">rules + review</text>
    </g>
    <g transform="translate(928 198)">
      <rect width="184" height="132" rx="22" fill="url(#card)" stroke="#2D3B56"/>
      <circle cx="38" cy="42" r="13" fill="#F97316"/>
      <text x="28" y="78" fill="#F8FAFC" font-size="18" font-weight="700">Settle</text>
      <text x="28" y="104" fill="#93A4BC" font-size="13">USDC / policy</text>
    </g>
  </g>

  <g transform="translate(80 392)" font-family="Inter, ui-sans-serif, system-ui, -apple-system, BlinkMacSystemFont, Segoe UI, sans-serif">
    <rect width="214" height="46" rx="23" fill="#101827" stroke="#26364F"/>
    <text x="24" y="29" fill="#E2E8F0" font-size="15" font-weight="650">Agent Skills</text>

    <rect x="236" width="206" height="46" rx="23" fill="#101827" stroke="#26364F"/>
    <text x="260" y="29" fill="#E2E8F0" font-size="15" font-weight="650">Proof Kit</text>

    <rect x="464" width="236" height="46" rx="23" fill="#101827" stroke="#26364F"/>
    <text x="488" y="29" fill="#E2E8F0" font-size="15" font-weight="650">Settlement Contracts</text>

    <rect x="722" width="220" height="46" rx="23" fill="#101827" stroke="#26364F"/>
    <text x="746" y="29" fill="#E2E8F0" font-size="15" font-weight="650">B20 Gateway</text>

    <rect x="964" width="190" height="46" rx="23" fill="#101827" stroke="#26364F"/>
    <text x="988" y="29" fill="#E2E8F0" font-size="15" font-weight="650">Base Rails</text>
  </g>
</svg>
